<?xml version="1.0" encoding="utf-8"?>
<!-- Generator: Adobe Illustrator 14.0.0, SVG Export Plug-In . SVG Version: 6.00 Build 43363)  -->
<!DOCTYPE svg PUBLIC "-//W3C//DTD SVG 1.1//EN" "http://www.w3.org/Graphics/SVG/1.1/DTD/svg11.dtd">
<svg version="1.1" id="Ebene_3" xmlns="http://www.w3.org/2000/svg" xmlns:xlink="http://www.w3.org/1999/xlink" x="0px" y="0px"
	 width="328.778px" height="329.378px" viewBox="0 0 328.778 329.378" enable-background="new 0 0 328.778 329.378"
	 xml:space="preserve">
<g>
	<g>
		<path fill="#C6463F" d="M325.055,165.093c0,88.256-71.547,159.801-159.805,159.801c-88.253,0-159.8-71.545-159.8-159.801
			S76.997,5.292,165.25,5.292C253.508,5.292,325.055,76.837,325.055,165.093"/>
		<path fill="#FFFFFF" d="M187.672,164.042c6.307,15.102,30.328,15.717,42.861,9.002c16.799-9.002,14.012-31.729,9.617-47.07
			c12.225,4.252,28.908,12.061,31.33,26.145c2.387,14.002-6.295,27.697-11.924,39.857c-5.033,10.863-11.342,29.963,2.379,37.807
			c5.795,2.389,10.559-4.689,14.506-10.895c3.926-6.193,7.705-12.785,10.279-19.666c31.609,149.039-281.089,153.15-236.527-4.637
			c3.22-11.391,7.856-22.355,13.192-32.896c-1.226,14.734,0.334,30.604,9.898,42.387c8.182,10.105,25.248,15.438,29.219-1.199
			c3.562-14.949-5.539-31.234-6.792-45.982c-1.577-18.566-2.048-34.408,12.6-44.969c1.021,8.176,3.188,14.506,5.518,17.709
			c4.015,5.561,9.633,10.939,16.799,11.432c13.709,0.939,26.557-9.598,32.398-21.391c2.691-5.451,3.65-11.975,1.92-17.881
			c-2.24-7.586-8.797-9.779-13.834-15.096c-4.919-5.203-8.53-10.057-9.96-17.238c-1.482-8.359,2.529-16.441,7.53-22.881
			c2.734-3.525,6.051-6.523,9.201-9.664c-1.926,13.441-5.385,31.369,9.693,39.25c12.148,6.33,25.939-1.186,38.215,5.512
			c15.756,8.6,3.418,30.43-2.787,41.152C195.898,135.121,180.738,147.378,187.672,164.042"/>
		<path fill="#C6463F" d="M121.821,236.763c12.314,8.498,26.735,12.984,41.708,12.984c14.633,0,28.794-4.301,40.934-12.436
			c2.516-1.705,3.195-5.119,1.496-7.656c-1.688-2.527-5.119-3.203-7.645-1.502c-10.316,6.914-22.342,10.574-34.785,10.574
			c-12.719,0-24.984-3.82-35.445-11.035c-2.513-1.742-5.943-1.105-7.674,1.4C118.681,231.603,119.306,235.033,121.821,236.763"/>
		<path fill="#C6463F" d="M107.173,258.054c16.622,11.465,36.122,17.525,56.357,17.525c19.782,0,38.901-5.82,55.286-16.803
			c2.535-1.697,3.216-5.117,1.514-7.65c-1.701-2.529-5.127-3.201-7.646-1.504c-14.564,9.76-31.572,14.918-49.153,14.918
			c-17.994,0-35.319-5.379-50.103-15.57c-2.505-1.721-5.931-1.092-7.661,1.414C104.043,252.886,104.671,256.328,107.173,258.054"/>
		<path fill="#C6463F" d="M226.393,270.097c-18.633,12.498-40.36,19.096-62.862,19.096c-23.01,0-45.164-6.893-64.069-19.924
			c-2.5-1.723-5.942-1.094-7.663,1.412c-1.734,2.512-1.104,5.938,1.416,7.668c20.75,14.309,45.072,21.869,70.316,21.869
			c24.681,0,48.556-7.238,69-20.959c2.526-1.691,3.208-5.113,1.507-7.646C232.346,269.083,228.918,268.408,226.393,270.097"/>
	</g>
</g>
</svg>
