<?xml version="1.0" encoding="utf-8"?>
<!-- Generator: Adobe Illustrator 19.0.0, SVG Export Plug-In . SVG Version: 6.00 Build 0)  -->
<!DOCTYPE svg PUBLIC "-//W3C//DTD SVG 1.1//EN" "http://www.w3.org/Graphics/SVG/1.1/DTD/svg11.dtd">
<svg version="1.1" id="Ebene_1" xmlns="http://www.w3.org/2000/svg" xmlns:xlink="http://www.w3.org/1999/xlink" x="0px" y="0px"
	 viewBox="0 0 100 100" enable-background="new 0 0 100 100" xml:space="preserve">
<path fill-rule="evenodd" clip-rule="evenodd" fill="#ffffff" d="M88.463951,42.303413h-8.70549
	c0.634323,2.462166,1.008896,5.034763,1.008896,7.69482c0,16.995754-13.774696,30.769573-30.767799,30.769573
	c-16.992214,0-30.767799-13.773819-30.767799-30.769573c0-2.660057,0.376345-5.232655,1.010662-7.69482h-8.706372v42.310913
	c0,2.121162,1.722725,3.843002,3.850062,3.843002h69.227783c2.127335,0,3.85006-1.72184,3.85006-3.843002V42.303413z
	 M88.463951,15.382138c0-2.122923-1.722725-3.845648-3.85006-3.845648H73.077843c-2.124687,0-3.84565,1.722725-3.84565,3.845648
	v11.540463c0,2.122921,1.720963,3.845648,3.84565,3.845648h11.536049c2.127335,0,3.85006-1.722727,3.85006-3.845648V15.382138z
	 M49.999557,30.76825c-10.621681,0-19.230867,8.608303-19.230867,19.229984c0,10.619915,8.609186,19.232639,19.230867,19.232639
	s19.232635-8.612724,19.232635-19.232639C69.232193,39.376553,60.621235,30.76825,49.999557,30.76825 M88.463951,99.999557
	H11.536048C5.165514,99.999557,0,94.832275,0,88.457329V11.53649C0,5.165073,5.165514,0.000442,11.536048,0.000442h76.927902
	C94.835373,0.000442,100,5.165073,100,11.53649v76.920837C100,94.832275,94.835373,99.999557,88.463951,99.999557"/>
</svg>
