<?xml version="1.0" encoding="utf-8"?>
<!-- Generator: Adobe Illustrator 19.0.0, SVG Export Plug-In . SVG Version: 6.00 Build 0)  -->
<!DOCTYPE svg PUBLIC "-//W3C//DTD SVG 1.1//EN" "http://www.w3.org/Graphics/SVG/1.1/DTD/svg11.dtd">
<svg version="1.1" id="Ebene_1" xmlns="http://www.w3.org/2000/svg" xmlns:xlink="http://www.w3.org/1999/xlink" x="0px" y="0px"
	 viewBox="0 0 100 100" enable-background="new 0 0 100 100" xml:space="preserve">
<g>
	<path fill="#5FA7E1" d="M91.657204,9.3716H78.121101V3.1289c0-1.7178-1.408203-3.1289-3.125-3.1289
		c-1.712898,0-3.125,1.4111-3.125,3.1289v6.2427H53.125999V3.1289C53.125999,1.4111,51.715801,0,50,0
		c-1.714802,0-3.126999,1.4111-3.126999,3.1289v6.2427H28.121099V3.1289c0-1.7178-1.408199-3.1289-3.125-3.1289
		c-1.7129,0-3.117199,1.4111-3.117199,3.1289v6.2427H8.3437C3.751,9.3716,0,13.0928,0,17.685101v73.967697
		C0,96.279297,3.751,100,8.3437,100h83.313507C96.248001,100,100,96.279297,100,91.652802V17.685101
		C100,13.0928,96.248001,9.3716,91.657204,9.3716L91.657204,9.3716z M93.746101,91.652802
		c0,1.164597-0.926804,2.093796-2.088898,2.093796H8.3437c-1.1621,0-2.0898-0.929199-2.0898-2.093796V17.685101
		c0-1.1299,0.9277-2.060101,2.0898-2.060101h13.5352v6.253901c0,1.711899,1.404299,3.117699,3.117199,3.117699
		c1.716801,0,3.125-1.4058,3.125-3.117699V15.625h18.751902v6.253901c0,1.711899,1.412197,3.117699,3.126999,3.117699
		c1.715801,0,3.125999-1.4058,3.125999-3.117699V15.625h18.745102v6.253901c0,1.711899,1.412102,3.117699,3.125,3.117699
		c1.716797,0,3.125-1.4058,3.125-3.117699V15.625h13.536102c1.162094,0,2.088898,0.930201,2.088898,2.060101V91.652802z
		 M93.746101,91.652802"/>
	<rect x="21.878901" y="37.503899" fill="#5FA7E1" width="12.4951" height="9.3696"/>
	<rect x="21.878901" y="53.127399" fill="#5FA7E1" width="12.4951" height="9.3711"/>
	<rect x="21.878901" y="68.75" fill="#5FA7E1" width="12.4951" height="9.3735"/>
	<rect x="43.746101" y="68.75" fill="#5FA7E1" width="12.5" height="9.3735"/>
	<rect x="43.746101" y="53.127399" fill="#5FA7E1" width="12.5" height="9.3711"/>
	<rect x="43.746101" y="37.503899" fill="#5FA7E1" width="12.5" height="9.3696"/>
	<rect x="65.624001" y="68.75" fill="#5FA7E1" width="12.4971" height="9.3735"/>
	<rect x="65.624001" y="53.127399" fill="#5FA7E1" width="12.4971" height="9.3711"/>
	<rect x="65.624001" y="37.503899" fill="#5FA7E1" width="12.4971" height="9.3696"/>
</g>
</svg>
