<?xml version="1.0" encoding="utf-8"?>
<!-- Generator: Adobe Illustrator 19.0.0, SVG Export Plug-In . SVG Version: 6.00 Build 0)  -->
<!DOCTYPE svg PUBLIC "-//W3C//DTD SVG 1.1//EN" "http://www.w3.org/Graphics/SVG/1.1/DTD/svg11.dtd">
<svg version="1.1" id="Ebene_1" xmlns="http://www.w3.org/2000/svg" xmlns:xlink="http://www.w3.org/1999/xlink" x="0px" y="0px"
	 viewBox="0 0 100 100" enable-background="new 0 0 100 100" xml:space="preserve">
<g>
	<path fill="#5FA7E1" d="M96.006798,30.540001C90.738297,18.247999,81.780296,9.3057,69.380898,4.0215
		C63.189499,1.3799,56.6973,0.0283,49.917999,0.0283c-6.7803,0-13.222698,1.3399-19.409199,3.9932
		C18.2187,9.2959,9.2197,18.226601,3.9355,30.540001C1.292,36.705101,0,43.165001,0,49.9473
		c0,6.777302,1.292,13.295898,3.9355,19.460903C9.2197,81.722702,18.2187,90.709,30.508801,95.984398
		c6.186501,2.654305,12.628899,3.987305,19.409199,3.987305c6.779301,0,13.2715-1.344704,19.462898-3.987305
		c12.392502-5.285194,21.352501-14.284195,26.6259-26.576195C98.660202,63.225601,100,56.724602,100,49.9473
		C100,43.165001,98.665001,36.724602,96.006798,30.540001L96.006798,30.540001z M88.028297,72.035202
		c-3.925797,6.732399-9.301697,12.075195-16.079094,16.0205c-6.726501,3.924797-14.102505,5.907196-22.031204,5.907196
		c-5.9571,0-11.6455-1.149399-17.055698-3.500999c-5.415001-2.352501-10.088902-5.4394-13.999001-9.347595
		C14.957,77.201202,11.8389,72.486298,9.5176,67.056602C7.1934,61.658199,6.0703,55.9062,6.0703,49.9473
		c0-7.9268,1.9483-15.266602,5.8496-21.9776c3.918-6.7383,9.294-12.0849,16.0205-16.0224
		c6.720699-3.9336,14.0518-5.9043,21.9776-5.9043c7.928699,0,15.299797,1.9824,22.031204,5.9043
		c6.772499,3.9492,12.135796,9.296801,16.079094,16.0224c3.9356,6.721699,5.900406,14.0508,5.900406,21.9776
		C93.928703,57.876999,91.975601,65.262703,88.028297,72.035202L88.028297,72.035202z M88.028297,72.035202"/>
	<path fill="#5FA7E1" d="M53.086899,49.5098V21.185499c0-1.695299-1.477497-3.0625-3.1689-3.0625
		c-1.587898,0-3.007801,1.367201-3.007801,3.0625V49.9473c0,0.053699,0.109303,0.275398,0.109303,0.432602
		c-0.109303,0.988297,0.166,1.806599,0.820301,2.467796l16.345699,16.345699c1.095695,1.093704,3.122101,1.093704,4.209,0
		c1.259796-1.257896,1.178696-3.0821,0-4.265701L53.086899,49.5098z M53.086899,49.5098"/>
</g>
</svg>
