<?xml version="1.0" encoding="utf-8"?>
<!-- Generator: Adobe Illustrator 19.0.0, SVG Export Plug-In . SVG Version: 6.00 Build 0)  -->
<!DOCTYPE svg PUBLIC "-//W3C//DTD SVG 1.1//EN" "http://www.w3.org/Graphics/SVG/1.1/DTD/svg11.dtd">
<svg version="1.1" id="Ebene_1" xmlns="http://www.w3.org/2000/svg" xmlns:xlink="http://www.w3.org/1999/xlink" x="0px" y="0px"
	 viewBox="0 0 100 100" enable-background="new 0 0 100 100" xml:space="preserve">
<g>
	<path fill="#5FA7E1" d="M49.9995,0c-18.7139,0-33.938499,15.2246-33.938499,33.940399
		c0,7.5196,4.4268,18.955101,13.932699,35.990303c6.487299,11.624001,12.945299,21.441399,13.215799,21.8535l4.6679,7.075195
		C48.346199,99.572304,49.144001,100,49.9995,100c0.8526,0,1.654301-0.427696,2.1231-1.140602l4.6679-7.075195
		c0.2696-0.408203,6.679699-10.139702,13.212902-21.8535c9.507797-17.035202,13.9356-28.470703,13.9356-35.990303
		C83.939003,15.2246,68.714401,0,49.9995,0L49.9995,0z M65.565903,67.453102C59.117699,79.000999,52.812,88.5811,52.5425,88.984398
		l-2.542999,3.8564l-2.542-3.8564C47.190899,88.579102,40.8335,78.913101,34.437,67.453102
		c-8.8183-15.802704-13.291-27.077103-13.291-33.512703C21.146,18.0312,34.091301,5.0869,49.9995,5.0869
		c15.912098,0,28.851597,12.9443,28.851597,28.853498C78.851097,40.375999,74.381302,51.650398,65.565903,67.453102
		L65.565903,67.453102z M65.565903,67.453102"/>
	<path fill="#5FA7E1" d="M49.9995,14.9111c-10.374001,0-18.8144,8.4405-18.8144,18.814501
		c0,10.377899,8.440399,18.818298,18.8144,18.818298c10.375,0,18.818401-8.440399,18.818401-18.818298
		C68.817902,23.351601,60.3745,14.9111,49.9995,14.9111L49.9995,14.9111z M49.9995,47.458
		c-7.571301,0-13.730499-6.160099-13.730499-13.732399c0-7.569401,6.159199-13.730501,13.730499-13.730501
		c7.5723,0,13.730499,6.1611,13.730499,13.730501C63.73,41.297901,57.5718,47.458,49.9995,47.458L49.9995,47.458z M49.9995,47.458"
		/>
</g>
</svg>
