<?xml version="1.0" encoding="utf-8"?>
<!-- Generator: Adobe Illustrator 19.0.0, SVG Export Plug-In . SVG Version: 6.00 Build 0)  -->
<!DOCTYPE svg PUBLIC "-//W3C//DTD SVG 1.1//EN" "http://www.w3.org/Graphics/SVG/1.1/DTD/svg11.dtd">
<svg version="1.1" id="Ebene_1" xmlns="http://www.w3.org/2000/svg" xmlns:xlink="http://www.w3.org/1999/xlink" x="0px" y="0px"
	 viewBox="0 0 100 100" enable-background="new 0 0 100 100" xml:space="preserve">
<path id="XMLID_1_" fill="#C6463F" d="M89.781197,29.6143l0.046906,2.6367c0,27.109402-20.648399,58.388603-58.3965,58.388603
	C19.8437,90.639603,9.0625,87.241203,0,81.381798c1.5781,0.205101,3.2187,0.3125,4.8828,0.3125
	c9.625,0,18.462898-3.310501,25.484402-8.798798c-9-0.156197-16.5235-6.113297-19.169901-14.248001
	c1.2636,0.263599,2.539001,0.361301,3.8672,0.361301c1.875001,0,3.7109-0.253899,5.3886-0.712902
	C11.0937,56.411098,4.0234,48.129902,4.0234,38.208v-0.263699c2.75,1.533199,5.8985,2.451199,9.257801,2.548897
	C7.7891,36.840801,4.1797,30.522499,4.1797,23.452101c0-3.759701,1.0156-7.314402,2.7988-10.322201
	C17.0469,25.5322,32.203098,33.6768,49.244099,34.545898c-0.361298-1.484398-0.507797-3.056599-0.507797-4.687498
	c0-11.289101,9.154297-20.498001,20.498096-20.498001c5.898399,0,11.234299,2.5,15,6.4648
	c4.632805-0.918,9.046799-2.5977,13.017601-4.941401c-1.523499,4.794901-4.775398,8.8086-9.048897,11.3476
	c4.166-0.507799,8.140594-1.6308,11.796898-3.2617C97.251999,23.100599,93.75,26.7041,89.781197,29.6143L89.781197,29.6143z"/>
</svg>
