<?xml version="1.0" encoding="utf-8"?>
<!-- Generator: Adobe Illustrator 19.0.0, SVG Export Plug-In . SVG Version: 6.00 Build 0)  -->
<svg version="1.1" id="BCEF_-_LOGO_2015" xmlns="http://www.w3.org/2000/svg" xmlns:xlink="http://www.w3.org/1999/xlink" x="0px"
	 y="0px" viewBox="0 0 1749.7 942.2" style="enable-background:new 0 0 1749.7 942.2;" xml:space="preserve">
<style type="text/css">
	.st0{fill:#C6463F;}
	.st1{fill:#5FA7E1;}
	.st2{fill:#FFFFFF;}
	.st3{fill:#222221;}
</style>
<g>
	<path class="st0" d="M227.5,678.8c16.8,0,32.9-5.9,45.2-17.8h0c12.7-12.4,19-29.1,19-46.6c0-19.5-7.9-40-23.6-56.1
		c-16.2-16.6-37.3-25.1-57.4-25.1c-16.8,0-32.9,5.9-45.2,17.8c-12.7,12.4-19,29.1-19,46.6c0,19.5,7.9,40,23.6,56.1
		C186.3,670.4,207.4,678.8,227.5,678.8 M307.1,518.1c-17.7,0-17.9,21.1-33.4,39.1c15,17,24.6,36.9,24.6,57.1
		c0,19.4-6,38.2-20.3,52.1c-13.8,13.4-31.9,20-50.5,20h0c-22.2,0-43.2-9.3-60.9-27.4c-16.5-16.9-24.1-35.3-24.6-56.2
		c-9.2-6.6-16.4-20.5-27.4-9.5c-13.7,13.7,56.3,117.9,56.3,117.9s-44.4,84-21.1,94.6c23.3,10.6,54.2-27.4,81.8-15.4
		c12,5.2,27.9,17.2,44.5,21.2c11.4,2.8,16.9,4.2,25-1C322.4,796.9,336.9,518.1,307.1,518.1"/>
	<path class="st1" d="M467,287.8c0,88.3-71.5,159.8-159.8,159.8c-88.3,0-159.8-71.5-159.8-159.8S218.9,128,307.1,128
		C395.4,128,467,199.5,467,287.8"/>
	<path class="st2" d="M329.6,286.8c6.3,15.1,30.3,15.7,42.9,9c16.8-9,14-31.7,9.6-47.1c12.2,4.3,28.9,12.1,31.3,26.1
		c2.4,14-6.3,27.7-11.9,39.9c-5,10.9-11.3,30,2.4,37.8c5.8,2.4,10.6-4.7,14.5-10.9c3.9-6.2,7.7-12.8,10.3-19.7
		c31.6,149-281.1,153.2-236.5-4.6c3.2-11.4,7.9-22.4,13.2-32.9c-1.2,14.7,0.3,30.6,9.9,42.4c8.2,10.1,25.2,15.4,29.2-1.2
		c3.6-14.9-5.5-31.2-6.8-46c-1.6-18.6-2-34.4,12.6-45c1,8.2,3.2,14.5,5.5,17.7c4,5.6,9.6,10.9,16.8,11.4
		c13.7,0.9,26.6-9.6,32.4-21.4c2.7-5.4,3.7-12,1.9-17.9c-2.2-7.6-8.8-9.8-13.8-15.1c-4.9-5.2-8.5-10.1-10-17.2
		c-1.5-8.4,2.5-16.4,7.5-22.9c2.7-3.5,6.1-6.5,9.2-9.7c-1.9,13.4-5.4,31.4,9.7,39.2c12.1,6.3,25.9-1.2,38.2,5.5
		c15.8,8.6,3.4,30.4-2.8,41.2C337.8,257.8,322.6,270.1,329.6,286.8"/>
	<path class="st1" d="M263.7,359.5c12.3,8.5,26.7,13,41.7,13c14.6,0,28.8-4.3,40.9-12.4c2.5-1.7,3.2-5.1,1.5-7.7
		c-1.7-2.5-5.1-3.2-7.6-1.5c-10.3,6.9-22.3,10.6-34.8,10.6c-12.7,0-25-3.8-35.4-11c-2.5-1.7-5.9-1.1-7.7,1.4
		C260.6,354.3,261.2,357.7,263.7,359.5"/>
	<path class="st1" d="M249.1,380.8c16.6,11.5,36.1,17.5,56.4,17.5c19.8,0,38.9-5.8,55.3-16.8c2.5-1.7,3.2-5.1,1.5-7.7
		c-1.7-2.5-5.1-3.2-7.6-1.5c-14.6,9.8-31.6,14.9-49.2,14.9c-18,0-35.3-5.4-50.1-15.6c-2.5-1.7-5.9-1.1-7.7,1.4
		C245.9,375.6,246.6,379,249.1,380.8"/>
	<path class="st1" d="M368.3,392.8c-18.6,12.5-40.4,19.1-62.9,19.1c-23,0-45.2-6.9-64.1-19.9c-2.5-1.7-5.9-1.1-7.7,1.4
		c-1.7,2.5-1.1,5.9,1.4,7.7c20.7,14.3,45.1,21.9,70.3,21.9c24.7,0,48.6-7.2,69-21c2.5-1.7,3.2-5.1,1.5-7.6
		C374.2,391.8,370.8,391.1,368.3,392.8"/>
</g>
<g>
	<path class="st3" d="M583.2,168.7h-5.3c0.1-5.4,2-9.9,5.4-13.4c3.5-3.5,7.8-5.2,12.9-5.2c5.1,0,9.2,1.6,12.3,4.9
		c3.1,3.3,4.7,7.1,4.7,11.6c0,3.1-0.7,6.1-2.2,8.8c-1.5,2.7-4.4,6.4-8.7,11.1l-13.7,14.8H614v5.3h-37.4l21-22.7
		c4.3-4.6,7-8,8.3-10.2c1.3-2.2,1.9-4.5,1.9-7c0-3.1-1.2-5.8-3.5-8c-2.3-2.2-5.1-3.4-8.5-3.4c-3.5,0-6.4,1.2-8.8,3.5
		C584.8,161.2,583.5,164.5,583.2,168.7z"/>
	<path class="st3" d="M665.9,150.1h1.1v38.4h6.7v5.2H667v12.8h-5.5v-12.8h-26.4L665.9,150.1z M661.6,188.5v-23.1l-16.3,23.1H661.6z"
		/>
	<path class="st3" d="M703.8,198.3c1.3,0,2.4,0.4,3.3,1.3c0.9,0.9,1.3,2,1.3,3.3c0,1.3-0.4,2.4-1.3,3.3c-0.9,0.9-2,1.4-3.3,1.4
		s-2.4-0.5-3.3-1.4c-0.9-0.9-1.3-2-1.3-3.3c0-1.3,0.4-2.4,1.3-3.3C701.4,198.8,702.5,198.3,703.8,198.3z"/>
	<path class="st3" d="M732.2,183.6h20.6v4.6h-20.6V183.6z"/>
	<path class="st3" d="M780.6,168.7h-5.3c0.1-5.4,2-9.9,5.4-13.4c3.5-3.5,7.8-5.2,12.9-5.2c5.1,0,9.2,1.6,12.3,4.9s4.7,7.1,4.7,11.6
		c0,3.1-0.7,6.1-2.2,8.8c-1.5,2.7-4.4,6.4-8.7,11.1L786,201.3h25.4v5.3H774l21-22.7c4.3-4.6,7-8,8.3-10.2c1.3-2.2,1.9-4.5,1.9-7
		c0-3.1-1.2-5.8-3.5-8c-2.3-2.2-5.1-3.4-8.5-3.4c-3.5,0-6.4,1.2-8.8,3.5C782.2,161.2,780.9,164.5,780.6,168.7z"/>
	<path class="st3" d="M868.3,151.5v5.2h-19.6l-2.8,15c2.4-0.7,4.6-1.1,6.5-1.1c5,0,9.1,1.7,12.4,5s4.9,7.7,4.9,12.9
		c0,3.6-0.8,6.9-2.5,10c-1.7,3-3.9,5.3-6.8,6.9c-2.9,1.6-6.2,2.4-9.9,2.4c-4.5,0-8.2-1.4-11.3-4.1s-4.9-6.3-5.5-10.6h5.7
		c0.4,2.1,1.1,3.8,2.2,5.2c1,1.3,2.4,2.4,4,3.2c1.7,0.8,3.5,1.2,5.3,1.2c3.6,0,6.7-1.4,9.3-4.1c2.6-2.7,3.9-6.2,3.9-10.3
		c0-3.7-1.2-6.7-3.5-9.1c-2.3-2.3-5.5-3.5-9.4-3.5c-3.2,0-7.2,1-11.8,3l5.1-27.4H868.3z"/>
	<path class="st3" d="M901.1,198.3c1.3,0,2.4,0.4,3.3,1.3c0.9,0.9,1.3,2,1.3,3.3c0,1.3-0.4,2.4-1.3,3.3c-0.9,0.9-2,1.4-3.3,1.4
		s-2.4-0.5-3.3-1.4c-0.9-0.9-1.3-2-1.3-3.3c0-1.3,0.4-2.4,1.3-3.3C898.8,198.8,899.9,198.3,901.1,198.3z"/>
	<path class="st3" d="M997.8,150.1c8.3,0,15.3,2.8,20.9,8.4c5.6,5.6,8.4,12.4,8.4,20.6c0,8.1-2.8,14.9-8.4,20.5
		c-5.6,5.6-12.4,8.4-20.5,8.4c-8.2,0-15.1-2.8-20.7-8.4c-5.6-5.6-8.4-12.4-8.4-20.3c0-5.3,1.3-10.2,3.8-14.7s6.1-8.1,10.5-10.6
		C987.8,151.4,992.6,150.1,997.8,150.1z M998,155.5c-4.1,0-7.9,1.1-11.6,3.2c-3.7,2.1-6.5,5-8.6,8.6c-2,3.6-3.1,7.6-3.1,12
		c0,6.5,2.3,12.1,6.8,16.6c4.5,4.5,10,6.8,16.4,6.8c4.3,0,8.2-1,11.9-3.1s6.5-4.9,8.5-8.5s3.1-7.6,3.1-12c0-4.4-1-8.3-3.1-11.9
		s-4.9-6.4-8.6-8.5C1006.1,156.5,1002.2,155.5,998,155.5z"/>
	<path class="st3" d="M1053.7,150.1h5.2v32.2l18.9-16.4h7.7l-22.4,19.4l23.7,21.3h-7.4l-20.5-18.3v18.3h-5.2V150.1z"/>
	<path class="st3" d="M1113.2,150.7h5.2v15.1h8.3v4.5h-8.3v36.2h-5.2v-36.2h-7.2v-4.5h7.2V150.7z"/>
	<path class="st3" d="M1170.4,164.8c6.3,0,11.5,2.3,15.6,6.8c3.8,4.1,5.6,9.1,5.6,14.7c0,5.7-2,10.7-5.9,14.9
		c-4,4.3-9.1,6.4-15.3,6.4c-6.3,0-11.4-2.1-15.3-6.4c-4-4.3-5.9-9.2-5.9-14.9c0-5.6,1.9-10.5,5.6-14.7
		C1158.8,167.1,1164,164.8,1170.4,164.8z M1170.3,169.9c-4.4,0-8.1,1.6-11.2,4.8s-4.7,7.1-4.7,11.7c0,2.9,0.7,5.7,2.1,8.2
		c1.4,2.5,3.4,4.5,5.8,5.9s5.1,2.1,8,2.1s5.6-0.7,8-2.1c2.4-1.4,4.4-3.4,5.8-5.9c1.4-2.5,2.1-5.3,2.1-8.2c0-4.6-1.6-8.5-4.7-11.7
		S1174.7,169.9,1170.3,169.9z"/>
	<path class="st3" d="M1218,206.6v-56.5h5.2v22.7c2.2-2.7,4.7-4.7,7.4-6c2.7-1.3,5.7-2,8.9-2c5.8,0,10.7,2.1,14.8,6.3
		c4.1,4.2,6.1,9.3,6.1,15.2c0,5.9-2.1,10.9-6.2,15.1c-4.1,4.2-9.1,6.3-14.9,6.3c-3.3,0-6.3-0.7-9-2.1c-2.7-1.4-5.1-3.6-7.1-6.4v7.5
		H1218z M1239,202.6c2.9,0,5.6-0.7,8.1-2.2c2.5-1.4,4.4-3.5,5.9-6s2.2-5.3,2.2-8.2c0-2.9-0.7-5.7-2.2-8.3s-3.4-4.7-5.9-6.1
		c-2.5-1.5-5.1-2.2-7.9-2.2c-2.9,0-5.6,0.7-8.2,2.2c-2.6,1.5-4.6,3.4-5.9,5.9c-1.4,2.5-2.1,5.3-2.1,8.4c0,4.7,1.5,8.7,4.7,11.8
		C1230.7,201,1234.5,202.6,1239,202.6z"/>
	<path class="st3" d="M1320.7,193.1l4.4,2.3c-1.4,2.8-3.1,5.1-5,6.9c-1.9,1.7-4,3.1-6.4,4c-2.4,0.9-5.1,1.4-8.1,1.4
		c-6.6,0-11.8-2.2-15.6-6.5c-3.7-4.4-5.6-9.3-5.6-14.8c0-5.2,1.6-9.8,4.8-13.8c4-5.1,9.4-7.7,16.2-7.7c6.9,0,12.5,2.6,16.6,7.9
		c2.9,3.7,4.4,8.4,4.5,13.9h-36.7c0.1,4.7,1.6,8.6,4.5,11.6s6.5,4.5,10.8,4.5c2.1,0,4.1-0.4,6.1-1.1c2-0.7,3.6-1.7,5-2.9
		S1319.1,195.7,1320.7,193.1z M1320.7,182.1c-0.7-2.8-1.7-5-3.1-6.7c-1.3-1.7-3.1-3-5.3-4c-2.2-1-4.5-1.5-6.9-1.5
		c-4,0-7.4,1.3-10.3,3.9c-2.1,1.9-3.7,4.7-4.8,8.4H1320.7z"/>
	<path class="st3" d="M1350.7,165.8h5.4v6c1.6-2.3,3.3-4.1,5.1-5.3c1.8-1.2,3.6-1.7,5.5-1.7c1.4,0,3,0.5,4.6,1.4l-2.7,4.4
		c-1.1-0.5-2-0.7-2.8-0.7c-1.7,0-3.4,0.7-5.1,2.2c-1.6,1.4-2.9,3.7-3.7,6.7c-0.6,2.3-1,7-1,14.1v13.8h-5.4V165.8z"/>
	<path class="st3" d="M1432.9,168.7h-5.3c0.2-5.4,2-9.9,5.4-13.4c3.5-3.5,7.8-5.2,12.9-5.2c5.1,0,9.2,1.6,12.3,4.9
		c3.1,3.3,4.7,7.1,4.7,11.6c0,3.1-0.7,6.1-2.2,8.8c-1.5,2.7-4.4,6.4-8.7,11.1l-13.7,14.8h25.4v5.3h-37.4l21-22.7
		c4.3-4.6,7-8,8.3-10.2c1.3-2.2,1.9-4.5,1.9-7c0-3.1-1.2-5.8-3.5-8c-2.3-2.2-5.1-3.4-8.5-3.4c-3.5,0-6.4,1.2-8.8,3.5
		C1434.5,161.2,1433.2,164.5,1432.9,168.7z"/>
	<path class="st3" d="M1485.3,179c0-7.3,0.8-12.9,2.3-16.9c1.6-4,3.8-7,6.6-9c2.8-2,6-3.1,9.5-3.1c3.6,0,6.8,1,9.7,3.1
		c2.9,2.1,5.2,5.1,6.9,9.3c1.7,4.1,2.5,9.7,2.5,16.6c0,6.9-0.8,12.4-2.5,16.5c-1.7,4.1-4,7.2-6.9,9.3c-2.9,2.1-6.2,3.1-9.7,3.1
		c-3.5,0-6.7-1-9.5-3c-2.8-2-5-5-6.6-9C1486.1,191.9,1485.3,186.3,1485.3,179z M1490.5,179.1c0,6.2,0.6,10.9,1.7,14.1
		c1.1,3.2,2.8,5.6,4.9,7.3c2.2,1.6,4.5,2.5,6.9,2.5c2.4,0,4.7-0.8,6.9-2.4c2.1-1.6,3.7-4,4.8-7.3c1.4-3.9,2.1-8.6,2.1-14.2
		c0-5.5-0.6-10.1-1.8-13.6s-2.9-6.1-5.1-7.8c-2.2-1.6-4.4-2.5-6.8-2.5c-2.4,0-4.7,0.8-6.9,2.5c-2.1,1.6-3.8,4-4.9,7.2
		C1491.1,168.2,1490.5,172.9,1490.5,179.1z"/>
	<path class="st3" d="M1556,151.5h10.8v55.1h-5.5v-49.7h-8.7L1556,151.5z"/>
	<path class="st3" d="M1638.5,151.5v5.2h-19.6l-2.8,15c2.4-0.7,4.6-1.1,6.5-1.1c5,0,9.1,1.7,12.4,5s4.9,7.7,4.9,12.9
		c0,3.6-0.8,6.9-2.5,10c-1.7,3-3.9,5.3-6.8,6.9c-2.9,1.6-6.2,2.4-9.9,2.4c-4.5,0-8.2-1.4-11.3-4.1c-3.1-2.7-4.9-6.3-5.5-10.6h5.7
		c0.4,2.1,1.1,3.8,2.2,5.2c1,1.3,2.4,2.4,4,3.2c1.7,0.8,3.5,1.2,5.3,1.2c3.6,0,6.7-1.4,9.3-4.1c2.6-2.7,3.9-6.2,3.9-10.3
		c0-3.7-1.2-6.7-3.5-9.1c-2.3-2.3-5.5-3.5-9.4-3.5c-3.2,0-7.2,1-11.8,3l5.1-27.4H1638.5z"/>
</g>
<g>
	<path class="st1" d="M576.5,263h35.3v122.5c0,19.5-1.5,33.2-4.6,41c-3.1,7.9-8.2,14.1-15.3,18.8c-7.1,4.6-15.6,7-25.6,7
		c-20.3,0-37.6-8.9-52-26.7l25.3-23.7c5.6,6.4,10.4,10.6,14.3,12.8c3.9,2.2,7.7,3.3,11.4,3.3c3.8,0,6.6-1.6,8.4-4.8
		c1.8-3.2,2.8-10.2,2.8-21V263z"/>
	<path class="st1" d="M692.5,311.1h34.6v65.8c0,12.8,0.9,21.7,2.6,26.7c1.8,5,4.6,8.8,8.5,11.6c3.9,2.8,8.7,4.1,14.4,4.1
		c5.7,0,10.5-1.4,14.5-4.1c4-2.7,6.9-6.7,8.9-12c1.4-3.9,2.1-12.3,2.1-25.2v-66.9h34.3v57.9c0,23.8-1.9,40.2-5.6,48.9
		c-4.6,10.7-11.4,18.9-20.3,24.7c-9,5.7-20.3,8.6-34.1,8.6c-15,0-27.1-3.3-36.3-10c-9.2-6.7-15.7-16-19.5-28c-2.7-8.3-4-23.3-4-45.2
		V311.1z"/>
	<path class="st1" d="M990.1,311.1h34.1v117c0,23.1-4.6,40.1-13.9,50.9c-12.5,14.7-31.2,22.1-56.3,22.1c-13.4,0-24.6-1.7-33.8-5
		c-9.1-3.3-16.8-8.3-23.1-14.7c-6.3-6.5-10.9-14.4-13.9-23.7H921c3.3,3.8,7.7,6.8,12.9,8.7c5.3,2,11.5,2.9,18.7,2.9
		c9.2,0,16.6-1.4,22.2-4.3c5.6-2.8,9.6-6.5,11.9-11c2.3-4.5,3.5-12.3,3.5-23.3c-6,6-12.3,10.4-18.9,13c-6.6,2.6-14.1,4-22.5,4
		c-18.3,0-33.8-6.6-46.4-19.8c-12.6-13.2-18.9-29.9-18.9-50.2c0-21.7,6.7-39.1,20.1-52.2c12.1-11.9,26.6-17.8,43.4-17.8
		c7.9,0,15.3,1.4,22.3,4.3c7,2.9,14,7.6,21,14.2V311.1z M954.6,339.6c-10.8,0-19.7,3.6-26.7,10.9c-7,7.2-10.5,16.3-10.5,27.3
		c0,11.4,3.6,20.7,10.8,28c7.2,7.3,16.2,10.9,27.1,10.9c10.6,0,19.4-3.6,26.3-10.7c6.9-7.1,10.4-16.4,10.4-28
		c0-11.4-3.5-20.6-10.4-27.7C974.5,343.1,965.6,339.6,954.6,339.6z"/>
	<path class="st1" d="M1238.1,389.2H1128c1.6,9.7,5.8,17.4,12.7,23.2c6.9,5.7,15.7,8.6,26.4,8.6c12.8,0,23.8-4.5,33-13.4l28.9,13.6
		c-7.2,10.2-15.8,17.8-25.9,22.7c-10,4.9-22,7.3-35.8,7.3c-21.4,0-38.9-6.8-52.3-20.3c-13.5-13.5-20.2-30.4-20.2-50.8
		c0-20.8,6.7-38.1,20.1-51.9c13.4-13.8,30.3-20.6,50.5-20.6c21.5,0,39,6.9,52.5,20.6c13.5,13.8,20.2,31.9,20.2,54.5L1238.1,389.2z
		 M1203.8,362.3c-2.3-7.6-6.7-13.8-13.4-18.6s-14.4-7.2-23.2-7.2c-9.6,0-17.9,2.7-25.1,8c-4.5,3.3-8.7,9.2-12.6,17.7H1203.8z"/>
	<path class="st1" d="M1308.2,311.1h34.3v14c7.8-6.5,14.8-11.1,21.1-13.7c6.3-2.6,12.8-3.8,19.4-3.8c13.5,0,25,4.7,34.5,14.2
		c7.9,8,11.9,19.9,11.9,35.6v90.2h-33.9v-59.8c0-16.3-0.7-27.1-2.2-32.5c-1.5-5.3-4-9.4-7.6-12.2c-3.6-2.8-8.1-4.2-13.5-4.2
		c-6.9,0-12.9,2.3-17.8,7c-5,4.6-8.4,11.1-10.3,19.2c-1,4.3-1.5,13.5-1.5,27.7v54.8h-34.3V311.1z"/>
	<path class="st1" d="M1605.6,258.4h34.3v189.2h-34.3v-14.4c-6.7,6.4-13.4,10.9-20.1,13.7c-6.7,2.8-14,4.2-21.9,4.2
		c-17.6,0-32.9-6.8-45.8-20.5c-12.9-13.7-19.3-30.7-19.3-51c0-21.1,6.2-38.4,18.7-51.8c12.5-13.5,27.6-20.2,45.4-20.2
		c8.2,0,15.9,1.5,23.1,4.6c7.2,3.1,13.8,7.7,19.9,13.9V258.4z M1569.6,339.2c-10.6,0-19.4,3.7-26.4,11.2c-7,7.5-10.5,17.1-10.5,28.8
		c0,11.8,3.6,21.5,10.7,29.1c7.1,7.6,15.9,11.4,26.3,11.4c10.8,0,19.7-3.7,26.8-11.2c7.1-7.5,10.6-17.3,10.6-29.4
		c0-11.9-3.5-21.5-10.6-28.9C1589.4,342.9,1580.4,339.2,1569.6,339.2z"/>
</g>
<g>
	<path class="st0" d="M573.4,634.5l12.5,13.2c-8,7.1-15.7,13.3-22.9,18.4c5,4.6,11.6,11,19.7,19c6.4,6.3,11.9,12.2,16.4,17.6h-25.7
		l-24.5-25.2c-15.4,12.4-27.9,20.5-37.5,24.2c-9.6,3.8-19.8,5.6-30.5,5.6c-14.2,0-25.6-4.1-34.3-12.2c-8.6-8.2-12.9-18.3-12.9-30.6
		c0-9.2,2.9-18.4,8.7-27.7c5.8-9.2,17.7-20.9,35.6-35.1c-10.1-12.2-16.6-21.2-19.5-27c-2.9-5.8-4.3-11.4-4.3-16.6
		c0-9.2,3.6-16.8,10.7-22.8c8.2-7,18.4-10.5,30.6-10.5c7.7,0,14.7,1.5,21.1,4.6c6.4,3.1,11.2,7.3,14.6,12.5c3.3,5.2,5,10.8,5,16.6
		c0,6.2-2.2,12.8-6.5,19.8c-4.4,7-12.9,15.9-25.8,26.8l28,29.4l18.3,18.6C560,645.8,567.7,639.6,573.4,634.5z M490.1,615.7
		c-15.7,11.8-26,21.2-30.8,28.2c-4.9,7-7.3,13.5-7.3,19.4c0,7,3,13.2,8.9,18.6c6,5.4,13.2,8.1,21.9,8.1c6.5,0,13-1.3,19.2-4
		c9.9-4.3,21.2-11.5,34-21.7l-29.1-30C501.9,629,496.3,622.8,490.1,615.7z M492.4,591.3c9-6.9,15.7-13.8,20.2-20.5
		c3.2-4.8,4.8-9,4.8-12.7c0-4.3-2.1-7.9-6.2-11c-4.2-3.1-9.7-4.6-16.5-4.6c-6.5,0-11.9,1.6-16,4.8c-4.1,3.2-6.2,6.9-6.2,11.3
		c0,3.3,0.8,6.5,2.5,9.4C479.1,575.1,484.9,582.8,492.4,591.3z"/>
	<path class="st0" d="M675.3,702.7l26.4-184.6h3l75,151.5l74.3-151.5h3l26.6,184.6h-18.1l-18.2-132l-65.3,132h-4.7l-66-133
		l-18.1,133H675.3z"/>
	<path class="st0" d="M1035.8,657.4l14.8,7.8c-4.9,9.5-10.5,17.2-16.8,23.1c-6.4,5.9-13.5,10.3-21.5,13.4c-8,3.1-17,4.6-27,4.6
		c-22.3,0-39.7-7.3-52.3-21.9c-12.6-14.6-18.8-31.1-18.8-49.5c0-17.3,5.3-32.8,16-46.3c13.5-17.2,31.5-25.9,54.1-25.9
		c23.3,0,41.9,8.8,55.8,26.5c9.9,12.5,14.9,28,15.1,46.7H932.2c0.3,15.9,5.4,28.9,15.2,39s21.9,15.2,36.3,15.2
		c7,0,13.7-1.2,20.3-3.6c6.6-2.4,12.2-5.6,16.8-9.6C1025.4,672.8,1030.4,666.3,1035.8,657.4z M1035.8,620.7
		c-2.3-9.4-5.8-16.9-10.2-22.5c-4.5-5.6-10.4-10.1-17.8-13.6c-7.4-3.4-15.1-5.1-23.2-5.1c-13.4,0-24.9,4.3-34.6,12.9
		c-7,6.3-12.4,15.7-16,28.2H1035.8z"/>
	<path class="st0" d="M1231.3,513.5v189.2H1214v-23.5c-7.4,9-15.6,15.7-24.8,20.2c-9.2,4.5-19.2,6.8-30.1,6.8
		c-19.3,0-35.8-7-49.5-21c-13.7-14-20.5-31.1-20.5-51.1c0-19.7,6.9-36.5,20.7-50.4c13.8-14,30.4-21,49.8-21
		c11.2,0,21.4,2.4,30.4,7.2c9.1,4.8,17,11.9,23.9,21.5v-77.8H1231.3z M1161.1,579.6c-9.8,0-18.8,2.4-27.1,7.2
		c-8.3,4.8-14.9,11.6-19.7,20.2s-7.3,17.9-7.3,27.6c0,9.6,2.5,18.8,7.4,27.6c4.9,8.8,11.6,15.6,19.9,20.5c8.3,4.9,17.2,7.3,26.8,7.3
		c9.6,0,18.7-2.4,27.3-7.3c8.6-4.8,15.2-11.4,19.9-19.7c4.6-8.3,7-17.6,7-28c0-15.8-5.2-29-15.6-39.6
		C1189.1,584.9,1176.3,579.6,1161.1,579.6z"/>
	<path class="st0" d="M1287.5,510c4,0,7.4,1.4,10.2,4.3c2.8,2.8,4.2,6.3,4.2,10.3c0,3.9-1.4,7.3-4.2,10.2c-2.8,2.8-6.2,4.3-10.2,4.3
		c-3.9,0-7.3-1.4-10.1-4.3c-2.8-2.8-4.2-6.2-4.2-10.2c0-4,1.4-7.4,4.2-10.3C1280.2,511.4,1283.5,510,1287.5,510z M1278.7,566.2h17.6
		v136.5h-17.6V566.2z"/>
	<path class="st0" d="M1459.3,657.4l14.8,7.8c-4.9,9.5-10.5,17.2-16.8,23.1c-6.4,5.9-13.5,10.3-21.5,13.4c-8,3.1-17,4.6-27,4.6
		c-22.3,0-39.7-7.3-52.3-21.9c-12.6-14.6-18.8-31.1-18.8-49.5c0-17.3,5.3-32.8,16-46.3c13.5-17.2,31.5-25.9,54.1-25.9
		c23.3,0,41.9,8.8,55.8,26.5c9.9,12.5,14.9,28,15.1,46.7h-122.9c0.3,15.9,5.4,28.9,15.2,39s21.9,15.2,36.3,15.2
		c7,0,13.7-1.2,20.3-3.6c6.6-2.4,12.2-5.6,16.8-9.6C1449,672.8,1454,666.3,1459.3,657.4z M1459.3,620.7c-2.3-9.4-5.8-16.9-10.2-22.5
		c-4.5-5.6-10.4-10.1-17.8-13.6c-7.4-3.4-15.1-5.1-23.2-5.1c-13.4,0-24.9,4.3-34.6,12.9c-7,6.3-12.4,15.7-16,28.2H1459.3z"/>
	<path class="st0" d="M1520.7,566.2h17.6v24.5c7-9.4,14.8-16.4,23.3-21c8.5-4.6,17.8-7,27.9-7c10.2,0,19.3,2.6,27.2,7.8
		c7.9,5.2,13.7,12.2,17.5,21s5.6,22.5,5.6,41v70.3h-17.6v-65.1c0-15.7-0.7-26.2-2-31.5c-2-9-5.9-15.8-11.7-20.4
		c-5.8-4.6-13.3-6.8-22.6-6.8c-10.6,0-20.1,3.5-28.6,10.5c-8.4,7-14,15.7-16.6,26.1c-1.7,6.8-2.5,19.2-2.5,37.1v50.1h-17.6V566.2z"
		/>
</g>
<g>
	<path class="st3" d="M433.7,759.2h10.9c4.4,0,7.7,0.5,10.1,1.6c2.3,1,4.2,2.6,5.6,4.8c1.4,2.1,2,4.5,2,7.1c0,2.4-0.6,4.7-1.8,6.7
		c-1.2,2-2.9,3.6-5.3,4.9c2.9,1,5.1,2.1,6.6,3.4c1.5,1.3,2.7,2.9,3.6,4.8c0.9,1.9,1.3,3.9,1.3,6c0,4.4-1.6,8.2-4.8,11.2
		c-3.2,3.1-7.6,4.6-13,4.6h-15.1V759.2z M439.1,764.6v17.6h3.1c3.8,0,6.6-0.4,8.4-1.1c1.8-0.7,3.2-1.8,4.3-3.4s1.6-3.2,1.6-5.1
		c0-2.5-0.9-4.5-2.6-5.9c-1.8-1.4-4.6-2.2-8.4-2.2H439.1z M439.1,787.7v21.1h6.8c4,0,7-0.4,8.8-1.2c1.9-0.8,3.4-2,4.5-3.7
		c1.1-1.7,1.7-3.5,1.7-5.4c0-2.4-0.8-4.6-2.4-6.4c-1.6-1.8-3.8-3.1-6.6-3.7c-1.9-0.4-5.1-0.7-9.8-0.7H439.1z"/>
	<path class="st3" d="M542.9,759.2l25.7,55h-5.9l-8.7-18.1h-23.7l-8.6,18.1h-6.1l26-55H542.9z M542.2,770.9l-9.4,19.9h18.8
		L542.2,770.9z"/>
	<path class="st3" d="M620.2,759.2h11c6.1,0,10.3,0.3,12.4,0.7c3.3,0.7,5.9,2.4,8,4.8c2,2.5,3.1,5.5,3.1,9.1c0,3-0.7,5.6-2.1,7.9
		c-1.4,2.3-3.4,4-6,5.2c-2.6,1.2-6.2,1.8-10.9,1.8l19.8,25.6h-6.8l-19.8-25.6h-3.1v25.6h-5.5V759.2z M625.7,764.6v18.7l9.5,0.1
		c3.7,0,6.4-0.3,8.2-1c1.8-0.7,3.1-1.8,4.1-3.3c1-1.5,1.5-3.2,1.5-5.1c0-1.8-0.5-3.5-1.5-5c-1-1.5-2.3-2.6-3.9-3.2
		c-1.6-0.6-4.3-1-8.1-1H625.7z"/>
	<path class="st3" d="M760.5,769.4l-4.3,3.3c-2.4-3.1-5.3-5.5-8.6-7.1c-3.4-1.6-7-2.4-11.1-2.4c-4.4,0-8.5,1.1-12.2,3.2
		c-3.7,2.1-6.6,4.9-8.7,8.5c-2.1,3.6-3.1,7.6-3.1,12c0,6.7,2.3,12.3,6.9,16.8s10.4,6.7,17.4,6.7c7.7,0,14.2-3,19.3-9.1l4.3,3.3
		c-2.7,3.5-6.2,6.2-10.3,8.1c-4.1,1.9-8.7,2.9-13.8,2.9c-9.6,0-17.2-3.2-22.8-9.6c-4.7-5.4-7-11.9-7-19.6c0-8.1,2.8-14.8,8.5-20.3
		c5.7-5.5,12.7-8.3,21.2-8.3c5.1,0,9.8,1,13.9,3C754.5,762.9,757.9,765.7,760.5,769.4z"/>
	<path class="st3" d="M836.9,759.2l25.7,55h-5.9l-8.7-18.1h-23.7l-8.6,18.1h-6.1l26-55H836.9z M836.2,770.9l-9.4,19.9h18.8
		L836.2,770.9z"/>
	<path class="st3" d="M911.4,814.2l7.9-55h0.9l22.4,45.2l22.2-45.2h0.9l7.9,55h-5.4l-5.4-39.4l-19.5,39.4h-1.4l-19.7-39.7l-5.4,39.7
		H911.4z"/>
	<path class="st3" d="M1027.2,759.2h11c6.3,0,10.5,0.3,12.7,0.8c3.1,0.8,5.7,2.4,7.7,4.8c2,2.4,3,5.4,3,9.1c0,3.7-1,6.7-2.9,9.1
		c-1.9,2.4-4.6,4-8,4.8c-2.5,0.6-7.2,0.9-14,0.9h-3.9v25.6h-5.5V759.2z M1032.7,764.6v18.7l9.3,0.1c3.8,0,6.5-0.3,8.3-1
		c1.7-0.7,3.1-1.8,4.1-3.3c1-1.5,1.5-3.2,1.5-5.1c0-1.8-0.5-3.5-1.5-5.1c-1-1.5-2.3-2.6-3.9-3.3c-1.6-0.6-4.3-1-8-1H1032.7z"/>
	<path class="st3" d="M1179.5,759.2h31.5v5.4h-26v17.3h25.8v5.4H1185v21.6h25.8v5.4h-31.3V759.2z"/>
	<path class="st3" d="M1263.7,759.2h11c6.1,0,10.3,0.3,12.4,0.7c3.3,0.7,5.9,2.4,8,4.8c2,2.5,3.1,5.5,3.1,9.1c0,3-0.7,5.6-2.1,7.9
		c-1.4,2.3-3.4,4-6,5.2c-2.6,1.2-6.2,1.8-10.9,1.8l19.8,25.6h-6.8l-19.8-25.6h-3.1v25.6h-5.5V759.2z M1269.2,764.6v18.7l9.5,0.1
		c3.7,0,6.4-0.3,8.2-1c1.8-0.7,3.1-1.8,4.1-3.3c1-1.5,1.5-3.2,1.5-5.1c0-1.8-0.5-3.5-1.5-5c-1-1.5-2.3-2.6-3.9-3.2
		c-1.6-0.6-4.3-1-8.1-1H1269.2z"/>
	<path class="st3" d="M1352.7,759.2h27.6v5.4h-22.1v17.3h22.1v5.4h-22.1v27h-5.5V759.2z"/>
	<path class="st3" d="M1432.9,759.2h5.5v33.2c0,3.9,0.1,6.4,0.2,7.4c0.3,2.2,0.9,4,1.9,5.4c1,1.5,2.5,2.7,4.6,3.7
		c2.1,1,4.2,1.5,6.2,1.5c1.8,0,3.6-0.4,5.2-1.2c1.7-0.8,3.1-1.8,4.2-3.2c1.1-1.4,1.9-3,2.5-5c0.4-1.4,0.6-4.3,0.6-8.6v-33.2h5.5
		v33.2c0,4.9-0.5,8.9-1.4,11.9c-1,3-2.9,5.7-5.8,7.9s-6.4,3.4-10.5,3.4c-4.4,0-8.2-1.1-11.4-3.2c-3.2-2.1-5.3-4.9-6.4-8.4
		c-0.7-2.1-1-6-1-11.6V759.2z"/>
	<path class="st3" d="M1526.1,759.2h11c6.1,0,10.3,0.3,12.4,0.7c3.3,0.7,5.9,2.4,8,4.8c2,2.5,3.1,5.5,3.1,9.1c0,3-0.7,5.6-2.1,7.9
		c-1.4,2.3-3.4,4-6,5.2c-2.6,1.2-6.2,1.8-10.9,1.8l19.8,25.6h-6.8l-19.8-25.6h-3.1v25.6h-5.5V759.2z M1531.6,764.6v18.7l9.5,0.1
		c3.7,0,6.4-0.3,8.2-1c1.8-0.7,3.1-1.8,4.1-3.3c1-1.5,1.5-3.2,1.5-5.1c0-1.8-0.5-3.5-1.5-5c-1-1.5-2.3-2.6-3.9-3.2
		c-1.6-0.6-4.3-1-8.1-1H1531.6z"/>
	<path class="st3" d="M1609.6,764.6v-5.4h30.2v5.4h-12.3v49.7h-5.6v-49.7H1609.6z"/>
</g>
</svg>
